<svg xmlns="http://www.w3.org/2000/svg" width="1100" height="300" viewBox="0 0 1100 300"><rect width="100%" height="100%" fill="#0b1220"/><text x="40" y="42" fill="#67adff" font-family="Arial" font-size="22" font-weight="700">Cloud Platform Automation</text>
<defs><marker id="a" markerWidth="10" markerHeight="10" refX="8" refY="3" orient="auto"><path d="M0,0 L0,6 L9,3 z" fill="#67adff"/></marker></defs>
<rect x="45" y="120" width="170" height="70" rx="12" fill="#121d33" stroke="#314461"/><text x="130.0" y="161.0" text-anchor="middle" fill="#edf3fc" font-family="Arial" font-size="16">GitHub Actions</text>
<rect x="275" y="120" width="170" height="70" rx="12" fill="#121d33" stroke="#314461"/><text x="360.0" y="161.0" text-anchor="middle" fill="#edf3fc" font-family="Arial" font-size="16">Terraform</text>
<rect x="505" y="80" width="190" height="70" rx="12" fill="#121d33" stroke="#314461"/><text x="600.0" y="121.0" text-anchor="middle" fill="#edf3fc" font-family="Arial" font-size="16">GCP</text>
<rect x="505" y="170" width="190" height="70" rx="12" fill="#121d33" stroke="#314461"/><text x="600.0" y="211.0" text-anchor="middle" fill="#edf3fc" font-family="Arial" font-size="16">AWS</text>
<rect x="775" y="120" width="250" height="70" rx="12" fill="#121d33" stroke="#314461"/><text x="900.0" y="161.0" text-anchor="middle" fill="#edf3fc" font-family="Arial" font-size="16">IAM / Governance</text>
<line x1="215" y1="155" x2="275" y2="155" stroke="#67adff" stroke-width="3" marker-end="url(#a)"/>
<line x1="445" y1="145" x2="505" y2="115" stroke="#67adff" stroke-width="3" marker-end="url(#a)"/>
<line x1="445" y1="165" x2="505" y2="205" stroke="#67adff" stroke-width="3" marker-end="url(#a)"/>
<line x1="695" y1="155" x2="775" y2="155" stroke="#67adff" stroke-width="3" marker-end="url(#a)"/>
</svg>